<svg width="283" height="88" viewBox="0 0 283 88" fill="none" xmlns="http://www.w3.org/2000/svg">
<path d="M0 57V0.359997H2.88V57H0ZM5.76 57V0.359997H14.4V57H5.76ZM17.28 57V0.359997H23.04V57H17.28ZM8.352 65.352H10.368L15.84 76.296L21.408 65.352H23.328V87.624H20.928V70.824L16.128 79.848H15.168L10.656 70.92V87.624H8.352V65.352ZM31.6875 57V0.359997H34.5675V57H31.6875ZM46.0875 57V0.359997H51.8475V57H46.0875ZM54.7275 57V0.359997H57.6075V57H54.7275ZM42.1515 85.512H46.3755V73.416H42.3435V71.304H48.8715V85.512H52.7115V87.624H42.1515V85.512ZM47.5275 67.848C47.0155 67.848 46.5675 67.688 46.1835 67.368C45.8635 66.984 45.7035 66.536 45.7035 66.024C45.7035 65.512 45.8635 65.096 46.1835 64.776C46.5035 64.392 46.9515 64.2 47.5275 64.2C47.9755 64.2 48.3915 64.392 48.7755 64.776C49.1595 65.16 49.3515 65.576 49.3515 66.024C49.3515 66.536 49.1595 66.984 48.7755 67.368C48.3915 67.688 47.9755 67.848 47.5275 67.848ZM63.375 57V0.359997H69.135V57H63.375ZM74.895 57V0.359997H77.775V57H74.895ZM80.655 57V0.359997H83.535V57H80.655ZM73.071 85.512H77.967V65.928H73.359V63.912H80.559V85.512H85.359V87.624H73.071V85.512ZM95.0625 57V0.359997H100.823V57H95.0625ZM112.343 57V0.359997H115.223V57H112.343ZM120.983 57V0.359997H123.863V57H120.983ZM109.079 79.464L106.967 81.48V87.624H104.375V63.912H107.255V64.104C107.127 64.296 107.031 64.456 106.967 64.584C106.967 64.776 106.967 65.064 106.967 65.448V78.792L115.127 71.208C115.703 71.336 116.343 71.4 117.047 71.4H117.911L111.095 77.928L119.062 87.624L115.799 87.72L109.079 79.464ZM126.75 57V0.359997H132.51V57H126.75ZM135.39 57V0.359997H144.03V57H135.39ZM146.91 57V0.359997H149.79V57H146.91ZM142.494 88.008C139.614 88.008 137.278 87.048 135.486 85.128L136.83 82.92L136.926 82.632L137.214 82.728C137.214 82.792 137.246 82.92 137.31 83.112C137.31 83.24 137.374 83.4 137.502 83.592C137.566 83.72 137.694 83.848 137.886 83.976C139.23 85.128 140.894 85.704 142.878 85.704C144.158 85.704 145.246 85.352 146.142 84.648C147.038 83.88 147.486 82.984 147.486 81.96C147.486 81.256 147.326 80.648 147.006 80.136C146.75 79.688 146.27 79.24 145.566 78.792C144.862 78.344 143.774 77.8 142.302 77.16C140.126 76.328 138.558 75.368 137.598 74.28C136.702 73.192 136.254 71.976 136.254 70.632C136.254 68.968 136.862 67.624 138.078 66.6C139.294 65.576 140.926 65.064 142.974 65.064C144.19 65.064 145.342 65.32 146.43 65.832C147.454 66.344 148.382 67.016 149.214 67.848L147.582 70.056L147.39 69.864C147.39 69.8 147.358 69.704 147.294 69.576C147.294 69.384 147.23 69.224 147.102 69.096C147.038 68.904 146.91 68.744 146.718 68.616C146.206 68.104 145.598 67.72 144.894 67.464C144.254 67.272 143.486 67.176 142.59 67.176C141.438 67.176 140.542 67.496 139.902 68.136C139.198 68.776 138.846 69.544 138.846 70.44C138.846 71.144 138.974 71.752 139.23 72.264C139.55 72.776 140.094 73.256 140.862 73.704C141.63 74.216 142.782 74.76 144.318 75.336C146.43 76.232 147.902 77.128 148.734 78.024C149.502 78.984 149.886 80.168 149.886 81.576C149.886 82.664 149.63 83.688 149.118 84.648C148.542 85.608 147.71 86.408 146.622 87.048C145.47 87.688 144.094 88.008 142.494 88.008ZM158.438 57V0.359997H161.318V57H158.438ZM167.078 57V0.359997H172.838V57H167.078ZM184.358 57V0.359997H187.238V57H184.358ZM167.942 63.912H170.822V64.104C170.63 64.296 170.534 64.456 170.534 64.584C170.47 64.776 170.438 65.064 170.438 65.448V74.184C171.078 73.224 171.878 72.424 172.838 71.784C173.798 71.208 174.79 70.92 175.814 70.92C177.35 70.92 178.566 71.464 179.462 72.552C180.358 73.64 180.806 75.368 180.806 77.736V87.624H178.31V77.832C178.31 76.168 178.022 74.984 177.446 74.28C176.87 73.512 176.134 73.128 175.238 73.128C174.47 73.128 173.734 73.352 173.03 73.8C172.262 74.184 171.654 74.792 171.206 75.624C170.694 76.392 170.438 77.256 170.438 78.216V87.624H167.942V63.912ZM190.125 57V0.359997H193.005V57H190.125ZM198.765 57V0.359997H201.645V57H198.765ZM204.525 57V0.359997H210.285V57H204.525ZM205.773 70.92C208.077 70.92 209.837 71.528 211.053 72.744C212.269 73.96 212.877 76.04 212.877 78.984V87.624H210.093V85.128C209.133 87.048 207.277 88.008 204.525 88.008C202.733 88.008 201.325 87.592 200.301 86.76C199.277 85.928 198.765 84.84 198.765 83.496C198.765 82.344 199.149 81.352 199.917 80.52C200.621 79.688 201.613 79.016 202.893 78.504C204.109 78.056 205.485 77.832 207.021 77.832C208.365 77.832 209.581 77.896 210.669 78.024C210.541 76.232 210.061 74.952 209.229 74.184C208.397 73.416 207.181 73.032 205.581 73.032C204.749 73.032 203.981 73.192 203.277 73.512C202.509 73.832 201.805 74.28 201.165 74.856L199.917 73.224C201.453 71.688 203.405 70.92 205.773 70.92ZM204.813 86.088C206.605 86.088 208.013 85.544 209.037 84.456C210.061 83.432 210.605 81.96 210.669 80.04C209.581 79.848 208.429 79.752 207.213 79.752C205.421 79.752 203.981 80.072 202.893 80.712C201.869 81.288 201.357 82.184 201.357 83.4C201.357 85.192 202.509 86.088 204.813 86.088ZM221.812 57V0.359997H224.693V57H221.812ZM236.213 57V0.359997H239.093V57H236.213ZM241.973 57V0.359997H247.733V57H241.973ZM238.901 88.008C237.301 88.008 235.893 87.656 234.677 86.952C233.461 86.184 232.501 85.16 231.797 83.88C231.093 82.6 230.741 81.128 230.741 79.464C230.741 77.864 231.093 76.424 231.797 75.144C232.501 73.864 233.461 72.84 234.677 72.072C235.893 71.368 237.301 71.016 238.901 71.016C240.181 71.016 241.365 71.272 242.453 71.784C243.477 72.296 244.341 73.032 245.045 73.992L243.413 75.624L243.221 75.816L243.029 75.624C243.029 75.432 242.965 75.24 242.837 75.048C242.773 74.92 242.613 74.728 242.357 74.472C241.845 74.024 241.301 73.704 240.725 73.512C240.085 73.256 239.381 73.128 238.613 73.128C237.653 73.128 236.789 73.384 236.021 73.896C235.189 74.408 234.549 75.144 234.101 76.104C233.589 77 233.333 78.056 233.333 79.272C233.333 80.488 233.589 81.608 234.101 82.632C234.613 83.592 235.285 84.328 236.117 84.84C237.013 85.416 237.973 85.704 238.997 85.704C240.661 85.704 242.101 85.032 243.317 83.688L244.757 85.416C243.157 87.144 241.205 88.008 238.901 88.008ZM253.5 57V0.359997H259.26V57H253.5ZM270.78 57V0.359997H273.66V57H270.78ZM279.42 57V0.359997H282.3V57H279.42ZM267.516 79.464L265.404 81.48V87.624H262.812V63.912H265.692V64.104C265.564 64.296 265.468 64.456 265.404 64.584C265.404 64.776 265.404 65.064 265.404 65.448V78.792L273.564 71.208C274.14 71.336 274.78 71.4 275.484 71.4H276.348L269.532 77.928L277.5 87.624L274.236 87.72L267.516 79.464Z" fill="white"/>
</svg>
